<?xml version="1.0" encoding="UTF-8" standalone="no"?>
<!-- Created with Inkscape (http://www.inkscape.org/) -->

<svg
   width="200.01355mm"
   height="292.63727mm"
   viewBox="0 0 200.01355 292.63727"
   version="1.1"
   id="svg1"
   xml:space="preserve"
   xmlns="http://www.w3.org/2000/svg"
   xmlns:svg="http://www.w3.org/2000/svg"><defs
     id="defs1" /><g
     id="layer3"
     transform="translate(-5.7050705,-7.7186585)"><ellipse
       style="opacity:0.944013;fill:#d6d087;fill-opacity:1;stroke-width:0.264583"
       id="path6"
       cx="105.71185"
       cy="154.03729"
       rx="100.00678"
       ry="146.31863" /></g><g
     id="layer1"
     transform="translate(-5.7050705,-7.7186585)"><path
       style="fill:#973f3f;fill-opacity:0.944025;stroke-width:0.264583"
       d="m 47.654236,184.91186 c 11.074577,19.46441 27.18305,30.53899 27.18305,30.53899 7.718646,0.67118 17.115256,1.67796 21.813561,8.72542 4.698303,7.04746 26.176273,20.13559 26.176273,20.13559"
       id="path1" /><path
       style="fill:#973f3f;fill-opacity:0.92695;stroke-width:0.264583"
       d="m 136.58643,264.11186 c 3.69153,6.71185 15.43729,14.43052 24.49831,11.41017 9.06102,-3.02033 22.14915,-9.06101 23.82712,-14.43051 1.67796,-5.36949 10.73898,-20.80678 8.05424,-25.84068 -2.68475,-5.03389 -35.57288,-72.15254 -36.57966,-77.18644 -1.00678,-5.03389 4.36271,-31.21016 2.68474,-34.5661 -1.67796,-3.35593 -12.08135,-16.10847 -12.08135,-16.10847"
       id="path2" /><path
       style="opacity:0.944013;fill:#973f3f;fill-opacity:1;stroke-width:0.264583"
       d="m 130.54576,79.871185 c -1.34237,0 2.01356,-2.684745 4.69831,-4.698304 2.68474,-2.013561 14.09491,-19.464408 13.75932,-24.8339 -0.3356,-5.369491 2.68474,-24.833896 -2.34915,-25.505083 -5.0339,-0.671187 -13.08814,13.42373 -17.45085,16.77966 -4.36271,3.355932 -15.43729,17.115255 -16.77966,17.450847 -1.34237,0.335595 -10.0678,-8.389829 -14.094918,-8.725424 -4.02712,-0.335592 -11.074577,-0.671184 -11.074577,-0.671184 0,0 3.02034,-5.033899 1.006782,-8.725424 -2.013561,-3.691527 -0.335595,-17.786441 -3.020341,-18.457628 -2.684745,-0.671186 -16.108473,15.772883 -19.799998,20.806779 -3.691527,5.033899 -6.376273,23.155933 -6.376273,23.155933 0,0 -6.37627,2.013559 -9.061016,4.362712 -2.684745,2.349151 -20.80678,32.888131 -24.833898,39.935591 -4.027118,7.04746 2.349152,44.6339 4.362713,50.67458 2.013558,6.04068 18.793219,25.16949 18.793219,25.16949"
       id="path3" /><path
       style="opacity:0.944013;fill:#973f3f;fill-opacity:1;stroke-width:0.264583"
       d="m 136.92203,265.11863 -7.71864,-18.12202 c 0,0 -19.8,-13.08814 -22.82034,-15.1017 -3.02034,-2.01356 -58.393219,-46.64746 -58.393219,-46.64746 l 77.522029,-98.664399 22.14915,22.820339 z"
       id="path4" /><path
       style="opacity:0.944013;fill:#000000;fill-opacity:1;stroke-width:0.264583"
       d="m 102.69152,136.92203 c 0,0 -6.376266,9.06102 -12.752537,8.72543 -6.376273,-0.3356 -15.437289,-9.73221 -15.437289,-9.73221 0,0 9.396611,-6.37627 13.423728,-6.37627 4.02712,0 14.766098,7.38305 14.766098,7.38305 z"
       id="path5" /></g></svg>
